<svg width="103" height="27" viewBox="0 0 103 27" fill="none" xmlns="http://www.w3.org/2000/svg">
<g clip-path="url(#clip0_2138_5610)">
<path d="M7.09511 5.6034V10.1741H24.1729V15.7775H7.09511V26.2767H0V0H25.1101V5.6034H7.09511ZM88.8893 26.2767H80.6275L67.3363 0H75.2537L84.8157 19.7744L94.3587 0H102.276L88.8893 26.2767Z" fill="white"/>
<path d="M35.9355 5.3224V0.361328H40.8966" stroke="white" stroke-width="2.34998"/>
<path d="M61.1993 5.38783V0.426758H56.2383" stroke="white" stroke-width="2.34998"/>
<path d="M40.963 26.0158H36.002V21.0547" stroke="white" stroke-width="2.34998"/>
<path d="M55.4531 26.0158H60.4142V21.0547" stroke="white" stroke-width="2.34998"/>
<path d="M57.5441 5.38807C58.1931 5.38807 58.7191 4.862 58.7191 4.21308C58.7191 3.56415 58.1931 3.03809 57.5441 3.03809C56.8952 3.03809 56.3691 3.56415 56.3691 4.21308C56.3691 4.862 56.8952 5.38807 57.5441 5.38807Z" fill="#FF0000"/>
</g>
<defs>
<clipPath id="clip0_2138_5610">
<rect width="102.224" height="26.2414" fill="white"/>
</clipPath>
</defs>
</svg>
